<svg width="1332" height="1621" viewBox="0 0 1332 1621" fill="current" xmlns="http://www.w3.org/2000/svg">
<path d="M1019.2 1083.53L1018.93 656.655C1018.93 650.016 1012.57 645.037 1005.75 645.037C998.483 645.037 993.03 650.016 993.03 656.655L993.307 1099.64L910.169 1151.37L909.876 725.529C909.876 719.306 903.968 713.912 897.152 713.912C889.882 713.912 884.429 719.306 884.429 725.529L884.734 1167.19L800.238 1219.77L799.911 795.648C799.911 789.425 794.459 784.031 787.188 784.031C779.918 784.031 774.465 789.425 774.465 795.648L774.804 1235.59L691.225 1287.6L690.856 864.523C690.856 857.884 685.403 852.906 678.133 852.906C671.317 852.906 665.409 857.884 665.409 864.523C665.409 864.523 665.661 1152.72 665.79 1300.16C660.207 1300.62 654.625 1298.98 649.042 1295.26L277.317 1062.93C270.679 1057.95 265.7 1051.31 265.7 1041.36V958.207V579.62C265.7 569.663 272.338 561.366 278.976 558.047L652.361 325.719C662.318 319.081 672.275 319.081 682.232 325.719L1053.96 558.047C1060.6 563.025 1065.57 569.663 1065.57 579.62V958.207V1041.36C1065.57 1051.31 1058.93 1059.61 1052.3 1062.93L1019.2 1083.53ZM0.182007 662.771V892.003V1157.52V1197.35C0.182007 1207.31 6.82001 1215.6 13.458 1218.92L650.701 1617.2C662.318 1622.18 673.934 1622.18 680.572 1617.2L1317.82 1218.92C1326.11 1212.28 1331.09 1205.65 1331.09 1197.35V1157.52V892.003V662.771V463.456V423.628C1331.09 413.672 1324.45 405.374 1317.82 402.055L680.572 3.77793C668.956 -1.20007 657.339 -1.20007 650.701 3.77793L13.458 402.055C5.16101 408.693 0.182007 415.331 0.182007 423.628V463.456V662.771Z" fill="current"/>
</svg>
